<?xml version="1.0" encoding="iso-8859-1"?>
<!-- Uploaded to: SVG Repo, www.svgrepo.com, Generator: SVG Repo Mixer Tools -->
<svg height="800px" width="800px" version="1.1" id="Layer_1" xmlns="http://www.w3.org/2000/svg" xmlns:xlink="http://www.w3.org/1999/xlink" 
	 viewBox="0 0 512 512" xml:space="preserve">
<circle style="fill:#FFFFFF;" cx="256" cy="256" r="187.317"/>
<g>
	<path style="fill:#93C7EF;" d="M166.41,345.59c-18.167-3.09-35.076-7.119-50.111-12.046c-14.345-4.699-26.834-10.153-37.317-16.282
		c18.772,54.086,61.67,96.983,115.754,115.754c-6.129-10.485-11.582-22.973-16.282-37.317
		C173.529,380.666,169.498,363.757,166.41,345.59z"/>
	<path style="fill:#93C7EF;" d="M306.591,161.43C296.16,109.542,277.405,74.927,256,74.927s-40.16,34.615-50.591,86.503
		c16.363-1.447,33.327-2.21,50.591-2.21S290.228,159.981,306.591,161.43z"/>
	<path style="fill:#93C7EF;" d="M74.927,256c0,21.405,34.615,40.16,86.503,50.591c-1.447-16.363-2.21-33.327-2.21-50.591
		s0.762-34.228,2.21-50.591C109.542,215.84,74.927,234.595,74.927,256z"/>
</g>
<path style="fill:#78B9EB;" d="M345.59,345.59c-3.09,18.167-7.119,35.076-12.046,50.111c-4.699,14.345-10.153,26.833-16.282,37.316
	c54.086-18.77,96.983-61.669,115.754-115.753c-10.485,6.129-22.973,11.582-37.317,16.282
	C380.666,338.471,363.757,342.502,345.59,345.59z"/>
<g>
	<path style="fill:#93C7EF;" d="M166.41,166.41c3.089-18.167,7.119-35.076,12.046-50.111c4.699-14.345,10.153-26.833,16.282-37.317
		c-54.086,18.772-96.983,61.67-115.754,115.754c10.484-6.129,22.973-11.582,37.317-16.282
		C131.334,173.529,148.243,169.498,166.41,166.41z"/>
	<path style="fill:#93C7EF;" d="M256,196.683c-19.687,0-38.635,1.033-56.38,2.937c-1.903,17.745-2.937,36.693-2.937,56.38
		s1.033,38.635,2.937,56.38c17.745,1.903,36.693,2.937,56.38,2.937s38.635-1.033,56.38-2.937c1.903-17.745,2.937-36.693,2.937-56.38
		s-1.033-38.635-2.937-56.38C294.635,197.716,275.687,196.683,256,196.683z"/>
</g>
<path style="fill:#78B9EB;" d="M345.59,166.41c18.167,3.089,35.076,7.119,50.111,12.046c14.345,4.699,26.833,10.153,37.317,16.282
	c-18.772-54.086-61.67-96.983-115.754-115.753c6.129,10.484,11.582,22.971,16.282,37.316
	C338.471,131.334,342.502,148.243,345.59,166.41z"/>
<path style="fill:#93C7EF;" d="M205.409,350.57c10.431,51.888,29.185,86.503,50.591,86.503s40.16-34.615,50.591-86.503
	c-16.363,1.447-33.327,2.21-50.591,2.21S221.772,352.019,205.409,350.57z"/>
<g>
	<path style="fill:#78B9EB;" d="M256,159.22c17.263,0,34.228,0.762,50.591,2.21C296.16,109.542,277.405,74.927,256,74.927"/>
	<path style="fill:#78B9EB;" d="M256,315.317c19.687,0,38.635-1.033,56.38-2.937c1.903-17.745,2.937-36.693,2.937-56.38
		s-1.033-38.635-2.937-56.38c-17.745-1.903-36.694-2.937-56.38-2.937"/>
	<path style="fill:#78B9EB;" d="M256,437.073c21.405,0,40.16-34.615,50.591-86.503c-16.363,1.447-33.327,2.21-50.591,2.21"/>
	<path style="fill:#78B9EB;" d="M350.57,205.409c1.447,16.363,2.21,33.327,2.21,50.591s-0.762,34.228-2.21,50.591
		c51.888-10.431,86.503-29.185,86.503-50.591S402.458,215.84,350.57,205.409z"/>
</g>
<path style="fill:#0052B4;" d="M256,512C114.84,512,0,397.158,0,256h37.463c0,120.501,98.036,218.537,218.537,218.537
	c55.776,0,108.877-21.009,149.521-59.158c21.566-20.24,38.539-44.154,50.446-71.078c12.322-27.859,18.569-57.568,18.569-88.3
	c0-120.501-98.036-218.537-218.537-218.537V0c141.158,0,256,114.842,256,256c0,35.985-7.324,70.792-21.77,103.454
	c-13.95,31.54-33.823,59.547-59.07,83.241C383.543,487.387,321.336,512,256,512z"/>
<path style="fill:#003778;" d="M256,0v37.463c120.501,0,218.537,98.036,218.537,218.537c0,30.732-6.248,60.441-18.568,88.3
	c-11.907,26.924-28.881,50.838-50.446,71.078c-40.645,38.149-93.747,59.159-149.523,59.159V512
	c65.336,0,127.543-24.613,175.161-69.305c25.247-23.696,45.12-51.701,59.07-83.241C504.676,326.792,512,291.985,512,256
	C512,114.842,397.158,0,256,0z"/>
</svg>